<svg xmlns="http://www.w3.org/2000/svg" version="1.0" viewBox="0 0 373 273"><path fill="#BFBFBF" fill-opacity=".1" d="M183.3 49.7c.9.2 2.3.2 3 0 .6-.3-.1-.5-1.8-.5-1.6 0-2.2.2-1.2.5m7 0c.9.2 2.5.2 3.5 0 .9-.3.1-.5-1.8-.5s-2.7.2-1.7.5M117 205.3c0 .2 1.5 1.6 3.3 3.3l3.2 2.9-2.9-3.3c-2.8-3-3.6-3.7-3.6-2.9m137.9 3.4-2.4 2.8 2.8-2.4c2.5-2.3 3.2-3.1 2.4-3.1-.2 0-1.4 1.2-2.8 2.7m-51.1 27c.7.3 1.6.2 1.9-.1.4-.3-.2-.6-1.3-.5-1.1 0-1.4.3-.6.6m-9 1c.7.3 1.6.2 1.9-.1.4-.3-.2-.6-1.3-.5-1.1 0-1.4.3-.6.6"/><path fill="gray" fill-opacity=".2" d="M94.1 134.6c0 1.1.3 1.4.6.6.3-.7.2-1.6-.1-1.9-.3-.4-.6.2-.5 1.3m187 0c0 1.1.3 1.4.6.6.3-.7.2-1.6-.1-1.9-.3-.4-.6.2-.5 1.3M94.2 152c0 1.4.2 1.9.5 1.2.2-.6.2-1.8 0-2.5-.3-.6-.5-.1-.5 1.3m186.9-.4c0 1.1.3 1.4.6.6.3-.7.2-1.6-.1-1.9-.3-.4-.6.2-.5 1.3"/><path fill="gray" fill-opacity=".3" d="M184.8 236.7c.7.3 1.6.2 1.9-.1.4-.3-.2-.6-1.3-.5-1.1 0-1.4.3-.6.6m5 0c.7.3 1.6.2 1.9-.1.4-.3-.2-.6-1.3-.5-1.1 0-1.4.3-.6.6"/><path fill="#404040" fill-opacity=".5" d="M121.5 209c1 1.1 2 2 2.3 2s-.3-.9-1.3-2-2-2-2.3-2 .3.9 1.3 2m131.9.2-1.9 2.3 2.3-1.9c2.1-1.8 2.7-2.6 1.9-2.6-.2 0-1.2 1-2.3 2.2"/><path fill-opacity=".8" d="m122.4 77.2-2.9 3.3 3.3-2.9c1.7-1.7 3.2-3.1 3.2-3.3 0-.8-.8-.1-3.6 2.9M250 74.3c0 .2 1.5 1.6 3.3 3.3l3.2 2.9-2.9-3.3c-2.8-3-3.6-3.7-3.6-2.9M95.3 143c0 4.1.2 5.8.4 3.7.2-2 .2-5.4 0-7.5-.2-2-.4-.3-.4 3.8m185 0c0 4.1.2 5.8.4 3.7.2-2 .2-5.4 0-7.5-.2-2-.4-.3-.4 3.8M96.1 157.6c0 1.1.3 1.4.6.6.3-.7.2-1.6-.1-1.9-.3-.4-.6.2-.5 1.3m24.4 49.4c1 1.1 2 2 2.3 2s-.3-.9-1.3-2-2-2-2.3-2 .3.9 1.3 2m133.9.2-1.9 2.3 2.3-1.9c1.2-1.1 2.2-2.1 2.2-2.3 0-.8-.8-.2-2.6 1.9M125 211.4c0 .2.8 1 1.8 1.7 1.5 1.3 1.6 1.2.3-.4s-2.1-2.1-2.1-1.3m123.9 1.3c-1.3 1.6-1.2 1.7.4.4s2.1-2.1 1.3-2.1c-.2 0-1 .8-1.7 1.7"/><g fill-opacity=".9" stroke-opacity=".9" stroke-width="0"><path d="M154 57c-.8.5-1 1-.5 1 .6 0 1.7-.5 2.5-1s1.1-1 .5-1c-.5 0-1.7.5-2.5 1m70.9 2.1c3.5 1.6 6.6 2.8 6.8 2.6.4-.5-11.4-5.7-12.5-5.6-.4 0 2.2 1.4 5.7 3M147 60c-1.9 1.1-3 1.9-2.5 1.9.6 0 2.6-.8 4.5-1.9s3.1-1.9 2.5-1.9c-.5 0-2.6.8-4.5 1.9m-9.5 5.6-3 2.6 3.3-2.2c1.7-1.2 3.2-2.3 3.2-2.6 0-.7-.4-.5-3.5 2.2m97.5-2.2c0 .2 1.4 1.4 3 2.6 1.7 1.2 3 1.9 3 1.6 0-.2-1.3-1.4-3-2.6-1.6-1.2-3-1.9-3-1.6m-103.1 6.3c-1.3 1.6-1.2 1.7.4.4.9-.7 1.7-1.5 1.7-1.7 0-.8-.8-.3-2.1 1.3M242 68.4c0 .2.8 1 1.8 1.7 1.5 1.3 1.6 1.2.3-.4s-2.1-2.1-2.1-1.3m-119.5 9.8c-6 6.2-6.2 6.5-1.5 2.3 5-4.5 9.6-9.5 8.8-9.5-.2 0-3.5 3.2-7.3 7.2m125.2-5c1 1.3 4.2 4.5 7.3 7.3 4.7 4.2 4.5 3.9-1.5-2.3-7.1-7.4-9-9-5.8-5M113.8 87.7c-1.6 1.9-7.6 12.2-6.5 11.2.9-.7 8.7-12.9 8.3-12.9-.1 0-1 .8-1.8 1.7m150.1 4.2c2.3 3.6 4.4 6.7 4.8 7 1.5 1.3-5.1-9.5-6.9-11.4-1.1-1.1-.1.9 2.1 4.4M105 102c-.6 1.1-.8 2-.6 2 .3 0 1-.9 1.6-2s.8-2 .6-2c-.3 0-1 .9-1.6 2m165 0c.6 1.1 1.3 2 1.6 2 .2 0 0-.9-.6-2s-1.3-2-1.6-2c-.2 0 0 .9.6 2M98.2 120.8c-1.7 7.6-1.3 9.9.4 2.8.8-3.3 1.3-6.5 1.1-7-.2-.6-.9 1.3-1.5 4.2m177.9-3.8c0 .8.6 4 1.4 7l1.5 5.5-.6-4.9c-.6-4.9-2.3-10.5-2.3-7.6M96.3 133.5c0 2.2.2 3 .4 1.7.2-1.2.2-3 0-4-.3-.9-.5.1-.4 2.3m183 0c0 2.2.2 3 .4 1.7.2-1.2.2-3 0-4-.3-.9-.5.1-.4 2.3m-183 19c0 2.2.2 3 .4 1.7.2-1.2.2-3 0-4-.3-.9-.5.1-.4 2.3m183 0c0 2.2.2 3 .4 1.7.2-1.2.2-3 0-4-.3-.9-.5.1-.4 2.3m-181.7 8.9c.3 2.7.9 5.8 1.4 7 1.4 3.4 1.1-.3-.5-6.4l-1.5-5.5zm179.6 1.6c-.7 3.4-1.1 6.4-.8 6.7.6.6 2.9-10.4 2.4-11.8-.2-.6-.9 1.7-1.6 5.1m-171.7 22c.9 1.6 1.8 3 2.1 3 .2 0-.2-1.4-1.1-3-.9-1.7-1.8-3-2.1-3-.2 0 .2 1.3 1.1 3m164 0c-.9 1.6-1.3 3-1.1 3 .3 0 1.2-1.4 2.1-3 .9-1.7 1.3-3 1.1-3-.3 0-1.2 1.3-2.1 3"/><path d="M110.2 193.1c1.2 2.2 2.8 4.5 3.6 5.1.7.7-.1-1.2-1.9-4-3.8-6.2-5-6.9-1.7-1.1m153.9 1.1c-1.8 2.8-2.6 4.7-1.9 4 1.4-1.1 6.2-9.2 5.5-9.2-.2 0-1.9 2.3-3.6 5.2M118 203.5c1.9 1.9 3.6 3.5 3.9 3.5s-1-1.6-2.9-3.5-3.6-3.5-3.9-3.5 1 1.6 2.9 3.5m139.4-.3-2.9 3.3 3.3-2.9c3-2.8 3.7-3.6 2.9-3.6-.2 0-1.6 1.5-3.3 3.2m-130.9 9c2.1 1.8 5.7 4.6 7.9 6.1 2.3 1.6 3 1.9 1.6.8-9.1-7.8-12-10.1-12.7-10.1-.4 0 1 1.5 3.2 3.2m122.2 0c-3.1 3.1-3.1 3.2-.2.8 1.6-1.4 3.4-2.8 4-3.2.5-.5.6-.8.2-.8s-2.2 1.5-4 3.2m-8.2 6.4-3 2.6 3.3-2.2c1.7-1.2 3.2-2.3 3.2-2.6 0-.7-.4-.5-3.5 2.2m-92.5 7.9c2.5 1.3 5 2.4 5.5 2.4.6 0-1-1.1-3.5-2.4s-4.9-2.4-5.5-2.4c-.5 0 1 1.1 3.5 2.4m78 0c-2.5 1.3-4 2.4-3.5 2.4.6 0 3-1.1 5.5-2.4s4.1-2.4 3.5-2.4c-.5 0-3 1.1-5.5 2.4m-46.2 9.2c.7.3 1.6.2 1.9-.1.4-.3-.2-.6-1.3-.5-1.1 0-1.4.3-.6.6m15 0c.7.3 1.6.2 1.9-.1.4-.3-.2-.6-1.3-.5-1.1 0-1.4.3-.6.6"/></g><g stroke-width="0"><path d="M177.5 51.1c-3.3.5-8 1.4-10.5 2-7.9 2-25.2 10-30.9 14.2-19.2 13.9-32.8 34-37.2 54.7-6.8 31.5 2 63.5 23.2 84.8 5.6 5.8 20.2 17.2 21.7 17.2.6 0 4.3 1.6 8.3 3.5 12.2 5.7 21.5 7.8 35.9 7.8s23.7-2.1 35.9-7.8c4-1.9 7.7-3.5 8.2-3.5s4.3-2.5 8.5-5.6c25.5-18.9 38.8-44.7 38.8-75.4 0-12.6-3.2-28.9-7.3-37C261 83.7 245 67.8 225 59.2c-12.3-5.2-17.8-6.9-27.3-8.2-8.8-1.1-11.6-1.1-20.2.1m30.3 5.5c16.3 3.8 30 11.3 42.2 23.4 24.3 23.9 32.7 57.9 22.5 90.5-8.6 27.8-33.6 51.1-63 58.8-9.4 2.4-30.5 2.9-39.5.9-7-1.5-20.8-6.8-23.7-9-2.2-1.6-2-1.7 7-1.7 8.4 0 9.8-.3 16.2-3.4 6.6-3.2 7.7-3.4 18.5-3.6 12.7-.3 19.8-1.9 29.6-6.5 14.2-6.8 26.2-18.9 33.1-33.6 2-4.3 4.7-9.5 6-11.4 3.2-5 5.6-15.4 4.9-21.4s-12.7-31-18.7-38.7c-29.3-38.2-87.4-35.6-113.4 5.1-9.2 14.4-10.5 21.4-10.5 56.4 0 21.8.3 28.3 1.6 32.5.8 2.9 1.3 5.8 1.1 6.4-.5 1.5-10.2-12.2-13.3-18.8-11.6-24.4-12.1-52.4-1.2-76.4 5.6-12.5 18.7-28.1 29.9-35.8 10.7-7.4 26.4-13.5 38.6-15.2 8.6-1.2 23.4-.5 32.1 1.5m.6 24.5c12.5 4.2 23.7 12.2 31.6 22.5 8.4 11.2 7.6 11.1-13.8-1.2-9.2-5.3-21.8-12.6-27.9-16.1-6.2-3.6-11.6-7-12-7.6-1-1.7 15.1.1 22.1 2.4m-20.8 3.7C193 88 204 94.4 212 99c39.5 22.8 37.6 21.4 42.2 30.8 2.8 5.7 3.3 7.7 3.3 13.7-.1 8.3-3.2 15.9-8.7 21.2-1.8 1.7-13.2 8.9-25.3 15.9s-29.4 17-38.5 22.3c-9.1 5.2-19 10.4-22 11.4-14 4.8-29.7-2.1-37.1-16.3-2.3-4.4-2.4-5.3-2.7-32.9-.4-32.5.3-38.6 5.5-49.3 3.9-8.2 9.2-15.7 11.1-15.8.9 0 1.2 9.6 1.2 45v44.9l3.1 3.5c3.5 4.1 8.6 5.8 12.9 4.6 1.6-.5 6.4-2.9 10.7-5.5 4.3-2.5 21.3-12.4 37.8-21.9 31.5-18.1 34.5-20.4 34.5-26.8 0-5.5-3.4-10.1-10.7-14.5-16.1-9.5-68.8-39.6-71.5-40.7-2.5-1.1-2.7-1.4-1.4-2.5 2.3-1.9 15.8-7 18.7-7.1 1.4 0 7 2.6 12.5 5.8m-2.3 23.8c29.3 16.8 39.3 22.6 44.5 25.7 6.3 3.7 8 9.2 4.2 13.9-1 1.4-10.6 7.5-21.2 13.6-10.6 6-27.6 15.8-37.7 21.6-20.2 11.6-22.7 12.4-27.4 8.1l-2.7-2.6V97.8l3-3c2.6-2.6 3.6-3 6.6-2.5 1.9.3 15.8 7.6 30.7 16.3m59.7 66.3c0 1.9-8.9 12.9-14.1 17.4-5.9 5.2-16.2 11-23.6 13.3-2.6.8-8.6 1.7-13.3 2-10.7.7-11.3 1.2 17-15 11.8-6.8 23.8-13.7 26.5-15.4 5.2-3.1 7.5-3.9 7.5-2.3"/><path d="M163.7 120.8c-1.4 1.5-1.7 4.9-1.9 20.8-.2 10.4.1 20.2.5 21.7.4 1.6 1.8 3.2 3.3 3.7 2.2.9 3.8.4 10.3-3.1 14.1-7.8 26.6-15.2 27.9-16.8 2.3-2.8 1.4-6.8-2-9.4-6.6-4.9-31.8-18.7-34.1-18.7-1.3 0-3.1.8-4 1.8m21.8 11.6c8.8 5.1 16 9.9 16 10.7 0 1.8-31.3 19.9-34 19.6-1.9-.2-2-1-2.3-18.7-.1-10.1 0-19 .2-19.7 1-2.4 4.1-1.2 20.1 8.1"/></g><path fill="#000040" d="M184.8 54.7c1.7.2 4.7.2 6.5 0 1.7-.2.3-.4-3.3-.4s-5 .2-3.2.4m-11 1c.7.3 1.6.2 1.9-.1.4-.3-.2-.6-1.3-.5-1.1 0-1.4.3-.6.6m27 0c.7.3 1.6.2 1.9-.1.4-.3-.2-.6-1.3-.5-1.1 0-1.4.3-.6.6M147.5 64c-.3.6.1.7.9.4 1.8-.7 2.1-1.4.7-1.4-.6 0-1.3.4-1.6 1m78.5-.6c0 .2.7.7 1.6 1 .8.3 1.2.2.9-.4-.6-1-2.5-1.4-2.5-.6m-92.1 9.3c-1.3 1.6-1.2 1.7.4.4.9-.7 1.7-1.5 1.7-1.7 0-.8-.8-.3-2.1 1.3M240 71.4c0 .2.8 1 1.8 1.7 1.5 1.3 1.6 1.2.3-.4s-2.1-2.1-2.1-1.3m-57.7 2.3c.9.2 2.3.2 3 0 .6-.3-.1-.5-1.8-.5-1.6 0-2.2.2-1.2.5m9 0c.9.2 2.3.2 3 0 .6-.3-.1-.5-1.8-.5-1.6 0-2.2.2-1.2.5m58.7 6.8c3 3 5.7 5.5 5.9 5.5.3 0-1.9-2.5-4.9-5.5s-5.7-5.5-5.9-5.5c-.3 0 1.9 2.5 4.9 5.5m-125.5.7-5 5.3 5.3-5c2.8-2.7 5.2-5.1 5.2-5.2 0-.8-.9.1-5.5 4.9m69.3-2.5c.7.3 1.6.2 1.9-.1.4-.3-.2-.6-1.3-.5-1.1 0-1.4.3-.6.6m-76.9 11c-1.3 1.6-1.2 1.7.4.4.9-.7 1.7-1.5 1.7-1.7 0-.8-.8-.3-2.1 1.3m25 1-2.4 2.8 2.8-2.4c2.5-2.3 3.2-3.1 2.4-3.1-.2 0-1.4 1.2-2.8 2.7m90.6-.7c1 1.1 2 2 2.3 2s-.3-.9-1.3-2-2-2-2.3-2 .3.9 1.3 2m24.5-1.6c0 .2.8 1 1.8 1.7 1.5 1.3 1.6 1.2.3-.4s-2.1-2.1-2.1-1.3M233.5 97c2.1 2.2 4.1 4 4.4 4s-1.3-1.8-3.4-4-4.1-4-4.4-4 1.3 1.8 3.4 4m-99.1 1.2-1.9 2.3 2.3-1.9c2.1-1.8 2.7-2.6 1.9-2.6-.2 0-1.2 1-2.3 2.2m106.1-.2c1 1.1 2 2 2.3 2s-.3-.9-1.3-2-2-2-2.3-2 .3.9 1.3 2M109 102.1c-.7 1.1-1 2.3-.7 2.5.2.2.9-.7 1.5-2.1 1.4-3 .7-3.3-.8-.4m158.2 2.4c1.2 2.4 2.3 4.3 2.6 4.1.4-.5-3.6-8.6-4.3-8.6-.3 0 .5 2 1.7 4.5m-24.2-3.1c0 .2.8 1 1.8 1.7 1.5 1.3 1.6 1.2.3-.4s-2.1-2.1-2.1-1.3m-136.5 5.7c-.4.6-.5 1.2-.2 1.5.2.3.7-.2 1-1.1.7-1.7.1-2-.8-.4M243 109c.6 1.1 1.3 2 1.6 2 .2 0 0-.9-.6-2s-1.3-2-1.6-2c-.2 0 0 .9.6 2m9 7.5c0 .5.5 1.7 1 2.5s1 1 1 .5c0-.6-.5-1.7-1-2.5s-1-1.1-1-.5m-85.2 2.2c.6.2 1.8.2 2.5 0 .6-.3.1-.5-1.3-.5s-1.9.2-1.2.5m-4.2 2.2c-1.2 1.3-1.6 3.1-1.3 5.8l.4 3.8.1-3.9c.1-2.2.9-4.8 1.9-5.8.9-1 1.4-1.8 1.1-1.8s-1.3.9-2.2 1.9m94.1 5c1.6 2.7 3 4.8 3.2 4.6.4-.5-4.8-9.5-5.4-9.5-.3 0 .7 2.2 2.2 4.9m-136.6.7c0 1.1.3 1.4.6.6.3-.7.2-1.6-.1-1.9-.3-.4-.6.2-.5 1.3m96.3.3c.7 1.1 4.6 3.5 4.6 2.8 0-.3-1.2-1.2-2.6-2.2-1.5-.9-2.3-1.2-2-.6M100.2 129c0 1.4.2 1.9.5 1.2.2-.6.2-1.8 0-2.5-.3-.6-.5-.1-.5 1.3m175 0c0 1.4.2 1.9.5 1.2.2-.6.2-1.8 0-2.5-.3-.6-.5-.1-.5 1.3m-156 2c0 1.4.2 1.9.5 1.2.2-.6.2-1.8 0-2.5-.3-.6-.5-.1-.5 1.3m42.1 6c0 3.6.2 5 .4 3.2.2-1.7.2-4.7 0-6.5-.2-1.7-.4-.3-.4 3.3m32.7-4.6c0 .3.9 1 2 1.6s2 .8 2 .6c0-.3-.9-1-2-1.6s-2-.8-2-.6m-70.9 2.2c0 1.1.3 1.4.6.6.3-.7.2-1.6-.1-1.9-.3-.4-.6.2-.5 1.3m-4.8 5.9c0 3.8.2 5.3.4 3.2.2-2 .2-5.2 0-7-.2-1.7-.4-.1-.4 3.8m-19 2.5c0 4.7.2 6.6.4 4.2.2-2.3.2-6.1 0-8.5-.2-2.3-.4-.4-.4 4.3m133.2-6c1 1.1 2 2 2.3 2s-.3-.9-1.3-2-2-2-2.3-2 .3.9 1.3 2m28.6-.4c0 1.1.3 1.4.6.6.3-.7.2-1.6-.1-1.9-.3-.4-.6.2-.5 1.3m15.2 6.4c0 4.7.2 6.6.4 4.2.2-2.3.2-6.1 0-8.5-.2-2.3-.4-.4-.4 4.3m-72.9-4.3c1.2 1.5 1.7 3.2 1.4 5.2-.2 1.7-.1 2.8.4 2.5 1.7-1.1.8-6.1-1.4-8l-2.3-1.9zm-3.3 3c.7 1.2 1.5 2 1.8 1.7.3-.2-.3-1.2-1.3-2.2-1.7-1.6-1.8-1.6-.5.5m35.1 1.3c0 1.9.2 2.7.5 1.7.2-.9.2-2.5 0-3.5-.3-.9-.5-.1-.5 1.8m21.9 2.6c0 1.1.3 1.4.6.6.3-.7.2-1.6-.1-1.9-.3-.4-.6.2-.5 1.3m-91.8 8.4c0 4.7.2 6.6.4 4.2.2-2.3.2-6.1 0-8.5-.2-2.3-.4-.4-.4 4.3m95.8-5.4c0 1.1.3 1.4.6.6.3-.7.2-1.6-.1-1.9-.3-.4-.6.2-.5 1.3m14.1 8.4c0 1.4.2 1.9.5 1.2.2-.6.2-1.8 0-2.5-.3-.6-.5-.1-.5 1.3m-175.1.6c0 1.1.3 1.4.6.6.3-.7.2-1.6-.1-1.9-.3-.4-.6.2-.5 1.3m61 3.5c-.1 1.4.6 3.4 1.5 4.5.8 1 1.2 1.3.8.5s-1.1-2.8-1.5-4.5c-.6-2.9-.7-2.9-.8-.5m-60 1.5c0 1.1.3 1.4.6.6.3-.7.2-1.6-.1-1.9-.3-.4-.6.2-.5 1.3m173 0c0 1.1.3 1.4.6.6.3-.7.2-1.6-.1-1.9-.3-.4-.6.2-.5 1.3m-24.5 12.1c-.6 1.4-.5 1.5.5.6.7-.7 1-1.5.7-1.8s-.9.2-1.2 1.2m20 1.8c-.9 2.6-.7 3.2.5 1.2.6-1 .9-2.1.6-2.3-.2-.3-.7.2-1.1 1.1m-36.1 12.7-5 5.3 5.3-5c4.8-4.6 5.7-5.5 4.9-5.5-.1 0-2.5 2.4-5.2 5.2m7.9-2-1.9 2.3 2.3-1.9c2.1-1.8 2.7-2.6 1.9-2.6-.2 0-1.2 1-2.3 2.2m-98.4 6.2c0 .2.8 1 1.8 1.7 1.5 1.3 1.6 1.2.3-.4s-2.1-2.1-2.1-1.3m115.9 2.3c-1.3 1.6-1.2 1.7.4.4s2.1-2.1 1.3-2.1c-.2 0-1 .8-1.7 1.7m-28 2c-1.3 1.6-1.2 1.7.4.4s2.1-2.1 1.3-2.1c-.2 0-1 .8-1.7 1.7M121 199.1c0 .5-.4.7-1 .4-1.4-.9-1.2.1.3 1.3 1 .8 1.3.6 1.4-.9.1-1 0-1.9-.3-1.9-.2 0-.4.5-.4 1.1m132.4 3.1-2.9 3.3 3.3-2.9c1.7-1.7 3.2-3.1 3.2-3.3 0-.8-.8-.1-3.6 2.9m-7 7-2.9 3.3 3.3-2.9c3-2.8 3.7-3.6 2.9-3.6-.2 0-1.6 1.5-3.3 3.2m-50.6-1.5c.7.3 1.6.2 1.9-.1.4-.3-.2-.6-1.3-.5-1.1 0-1.4.3-.6.6m-15 5c.7.3 1.6.2 1.9-.1.4-.3-.2-.6-1.3-.5-1.1 0-1.4.3-.6.6m14 0c.7.3 1.6.2 1.9-.1.4-.3-.2-.6-1.3-.5-1.1 0-1.4.3-.6.6m-50 7c.6.2 1.8.2 2.5 0 .6-.3.1-.5-1.3-.5s-1.9.2-1.2.5m28 11c.7.3 1.6.2 1.9-.1.4-.3-.2-.6-1.3-.5-1.1 0-1.4.3-.6.6m29 0c.7.3 1.6.2 1.9-.1.4-.3-.2-.6-1.3-.5-1.1 0-1.4.3-.6.6m-18 1c2.3.2 6.1.2 8.5 0 2.3-.2.4-.4-4.3-.4s-6.6.2-4.2.4"/><path fill="#004040" d="M187 78.8c0 .5 1.4.7 3 .4 1.7-.2 3-.6 3-.8s-1.3-.4-3-.4c-1.6 0-3 .4-3 .8M236.5 93c1 1.1 2 2 2.3 2s-.3-.9-1.3-2-2-2-2.3-2 .3.9 1.3 2m-99.1 1.2-1.9 2.3 2.3-1.9c2.1-1.8 2.7-2.6 1.9-2.6-.2 0-1.2 1-2.3 2.2m3.1 49.8c0 24.5.1 34.5.2 22.3.2-12.3.2-32.3 0-44.5-.1-12.3-.2-2.3-.2 22.2m4.7-36.5c0 1.6.2 2.2.5 1.2.2-.9.2-2.3 0-3-.3-.6-.5.1-.5 1.8m.1 7.5c0 2.5.2 3.5.4 2.2.2-1.2.2-3.2 0-4.5-.2-1.2-.4-.2-.4 2.3m16.6 5.7c-1.3 1.6-1.2 1.7.4.4.9-.7 1.7-1.5 1.7-1.7 0-.8-.8-.3-2.1 1.3m-16.8.9c0 1.1.3 1.4.6.6.3-.7.2-1.6-.1-1.9-.3-.4-.6.2-.5 1.3m20.3 13.9c0 6 .1 8.4.3 5.2s.2-8.1 0-11-.3-.3-.3 5.8m-20 1.5c0 6.3.1 8.9.3 5.7.2-3.1.2-8.3 0-11.5-.2-3.1-.3-.5-.3 5.8m-22 25.5c0 14.8.2 21.1.3 13.8.2-7.2.2-19.4 0-27-.1-7.6-.3-1.7-.3 13.2m138.9-20c0 2.2.2 3 .4 1.7.2-1.2.2-3 0-4-.3-.9-.5.1-.4 2.3m-5.2.1c0 1.1.3 1.4.6.6.3-.7.2-1.6-.1-1.9-.3-.4-.6.2-.5 1.3m-139 6c0 1.1.3 1.4.6.6.3-.7.2-1.6-.1-1.9-.3-.4-.6.2-.5 1.3m.3 21.9c0 11 .2 15.6.3 10.3.2-5.3.2-14.3 0-20-.1-5.7-.3-1.3-.3 9.7m27-1.5c0 10.2.2 14.3.3 9.2.2-5 .2-13.4 0-18.5-.1-5-.3-.9-.3 9.3m90.5-16.3c-1.3 1.6-1.2 1.7.4.4s2.1-2.1 1.3-2.1c-.2 0-1 .8-1.7 1.7m-135.8 1.9c0 1.1.3 1.4.6.6.3-.7.2-1.6-.1-1.9-.3-.4-.6.2-.5 1.3m147.8 10.1-2.4 2.8 2.8-2.4c2.5-2.3 3.2-3.1 2.4-3.1-.2 0-1.4 1.2-2.8 2.7m-8.5 25.5-1.9 2.3 2.3-1.9c1.2-1.1 2.2-2.1 2.2-2.3 0-.8-.8-.2-2.6 1.9m-119.7 9c1.9 2.1 3.1 2.5 1.4.5-.6-.8-.9-1.6-.6-1.9.3-.2-.2-.5-1-.5-1.3 0-1.3.3.2 1.9m9.3 4.2c0 .2.8 1 1.8 1.7 1.5 1.3 1.6 1.2.3-.4s-2.1-2.1-2.1-1.3m58 3.6c-.9.6-1 1-.3 1 .6 0 1.5-.5 1.8-1 .8-1.2.4-1.2-1.5 0m-42 13.4c0 .2.7.7 1.6 1 .8.3 1.2.2.9-.4-.6-1-2.5-1.4-2.5-.6m6.3.3c1.5.2 3.7.2 5 0 1.2-.2 0-.4-2.8-.4-2.7 0-3.8.2-2.2.4"/><g fill="#004080" stroke-width="0"><path d="M170 56.9c-16.6 3.5-31.5 11.5-43.6 23.6-11.7 11.6-18.9 23.9-23.6 40.2-1.9 6.6-2.3 10.1-2.2 22.8.1 13.4.4 16 2.8 24 3.1 10.2 9.2 22.2 14.1 28.1l3.4 3.9-1.4-5.5c-1.1-4.1-1.5-12.4-1.5-32.8 0-24.5.2-28.2 2.1-35.5 6.2-24.3 25.4-43.7 49.9-50.4 8.8-2.4 27.1-2.4 35.9 0 14 3.8 26.3 11.7 35.8 22.9 6.1 7.1 18.8 31.5 20.5 39.1 1.2 5.8-.2 14.9-3.4 21.2-1.2 2.2-3.9 7.6-6 12-13.7 27.6-36.5 42.5-65.2 42.5-9.4 0-10.7.2-15.7 2.9-6.2 3.4-16.3 5.6-21.4 4.8-1.9-.3-3.5-.3-3.5-.1 0 1 12.6 6.2 19.5 8 5.3 1.4 10.5 1.9 21.5 1.9 17.5 0 24-1.5 38.6-8.6 41.2-20.1 59.9-68 43.3-111-3.9-10.2-13.3-24.2-21.2-31.6-7.5-6.9-19.1-14.5-28-18.1-14.9-6-34.6-7.7-50.7-4.3m23.1.5c4.7.3 12.8 1.7 18 3 11.7 3 12.9 3.5 12.9 5.2 0 .8.7 1.4 1.5 1.4s1.5.5 1.5 1.2c0 .6.3.9.6.5.8-.8 6.4 1.2 9.7 3.6 2.4 1.6 2.6 2.1 1.5 3.4-1.1 1.4-.9 1.5 2 1.1s3.7.1 3.3 2.4c0 .5.5.8 1.3.8s1.6.7 2 1.5c.3.8 1.1 1.5 1.7 1.5 2.3 0 6.4 5.4 6.4 8.5 0 2.4.5 3 2 2.8 2.2-.2 3.5 1.3 3.5 4 0 1.4-.5 1.7-2 1.2-1.6-.5-2-.2-2 1.9 0 3.2 1.3 3.3 3.3.3 1.5-2.2 1.5-2.2 3.1-.2.8 1.1 1.6 3 1.6 4.2 0 1.3.3 2.3.8 2.3 1 0 3.2 5 3.2 7.3 0 1.1.7 2.5 1.5 3.1 3.6 2.7 5.4 31.6 2.5 39-.8 1.9-.9 1.8-2-1.2-1.6-4.2-3-4.1-2 .2 1.1 4.8 2 6.1 3.2 4.5.7-1.1.8-.9.4.4-.3 1-.6 3-.6 4.3 0 1.4-.6 2.4-1.5 2.4-1.9 0-3.5 3.1-3.5 6.9 0 1.7-.4 3.1-1 3.1-.5 0-1 1-1 2.2 0 1.3-.9 3.4-2 4.8s-2 3-2 3.6-.6 1.7-1.4 2.3c-1.1 1-1.7.7-3-1.1s-1.8-2-2.8-.9-1 1.4 0 1.8c1.4.6 1.6 3.3.2 3.3-.5 0-1 .5-1 1.2 0 .6.9.3 2.1-.7 2-1.9 2-1.9.9 1-1.9 5.1-8 10-8 6.5 0-.6-.7-1-1.5-1-2 0-1.9 2 .2 3.6 1.6 1.1 1.6 1.3-.9 2.5-1.5.6-2.5 1.6-2.2 2 .7 1.2-.7 1.1-2.6 0-2-1.3-3.4-.2-1.9 1.5.6.8 1 1.6.8 1.7-.2.2-2.1 1.5-4.1 3s-5.2 3-7 3.3c-1.8.4-3.7 1.2-4.3 1.8-2.5 3-10.4 5.7-17.6 5.9-4 .1-6.5.4-5.5.5 1.5.3 1.4.6-.7 1.7-2.8 1.4-24.1 2-21.8.6.7-.5-1.5-1.1-5.6-1.5-3.7-.4-9.3-1.6-12.3-2.5l-5.5-1.8 4-.8c2.2-.4 4.6-1.2 5.3-1.8 1-.8 1.6-.7 2.2.3.7 1.1.1 1.8-1.8 2.6-2.4 1.1-2.5 1.2-.6 1.3 1.2.1 3.5-.6 5-1.4 1.7-.9 2.2-1.5 1.3-1.5-3.6 0-1.3-3.5 3.6-5.7 5.6-2.5 10.6-2.9 13.5-1.1 1.5 1 2.2 1 3.2 0 .7-.7 3.9-1.2 7.5-1.2 3.5 0 6.3-.3 6.3-.8 0-.4 1.6-1.2 3.5-1.8s3.2-.7 3-.3c-.3.4.2 1 1.1 1.3s2.6-.4 4.2-1.9c1.5-1.4 4.9-4 7.6-5.7 4.4-2.9 5-3 6.1-1.5 1.3 1.9 3.5 2.3 3.5.7 0-.6-.7-1-1.5-1-2.5 0-1.3-2.1 4-7.3 7.2-7.1 7.4-7.2 6.8-4.5-.4 1.3-.2 2 .3 1.5.9-.9 1.1-1.4 1.3-4.8 0-1.1.6-1.7 1.2-1.4.6.4.8 1.3.5 2.1s-.2 1.4.3 1.4c1.4 0 4.2-3.7 4.4-5.9.1-1.1.4-2.1.8-2.1 1.7 0 5.1-6.1 4.3-7.8-.6-1.4-.8-1.1-1.3 1.2-.3 1.6-1.2 3.1-1.8 3.4-1.5.4-1.7-2.1-.3-4.6.6-.9 1.9-3.8 3-6.5 1.1-2.6 2.5-4.6 3.2-4.5.7.2 1.2-.5 1.2-1.5-.1-.9.1-1.7.5-1.7s1.3-3 2-6.8c.8-3.7 1.7-7.3 2.1-8.1s.3-2.8-.3-4.4c-.7-2.2-.7-3.5.3-5.1.7-1.2.9-1.8.5-1.4-1.2 1.1-3.7-4.2-3.7-7.7.1-2.3-.2-2.6-.9-1.5-.8 1.1-1 .8-.6-1.2.3-2.3.1-2.7-1.6-2.5-1.6.2-2.2-.6-2.9-3.8-.5-2.1-1.9-5-3.1-6.3-2.1-2.3-2.1-2.4-.3-3.7 1.7-1.3 1.7-1.5.1-3.7l-1.7-2.3.5 2.2c.8 3.3-.7 2.8-3.9-1.4-1.6-2.1-4.6-5.6-6.7-7.7-4.9-5.1-6.3-7.6-4.2-7.6.8 0 1.5-.5 1.5-1 0-1.3-1.7-1.3-2.5 0-1 1.6-4.3.2-10.5-4.1-3.1-2.2-6.1-3.9-6.8-3.9s-1.2-.6-1.2-1.3c0-1.9-3.7-3.6-9-4.2-8.5-1-34.5-.6-34.8.5-.2.5-2.6 1-5.2 1-4.9 0-10 1.6-10 3.2 0 .4-.5.8-1.1.8s-1.7.7-2.5 1.5-2.1 1.2-2.9.9c-.8-.4-1.5-.2-1.5.3 0 1.2-10.2 9.2-14.3 11.3-1.6.8-2.4 1.6-1.8 1.8 1.7.6 1.3 1.9-.6 1.9-1 0-3-1.1-4.4-2.4-1.5-1.4-2.9-2-3.3-1.5-.3.6.7 2.2 2.4 3.5 3.6 3.1 3.7 3.7.6 7.4-1.3 1.5-3.5 5-4.8 7.8-4.7 9.3-6.1 12-6.8 12.5-1 .8-2 4-1.2 4 .4 0 .7 14.2.7 31.5s-.3 31.5-.7 31.5c-.5 0-.8-.6-.8-1.3 0-.8-.9-2.2-2-3.2s-2-2.2-2-2.7c0-.4-.9-3-2.1-5.6-1.1-2.6-2.7-6.2-3.5-8s-1.4-5.9-1.4-9.2c0-3.2-.4-6.2-1-6.5-1.2-.7-1.2-17.2 0-20l.9-2 .1 2c0 1.7.2 1.8 1 .4.5-.9.8-2.5.5-3.7-.4-2.3 1.3-3.3 4.4-2.5 1.8.5 2.1.1 2.1-2.6 0-2.6-.4-3.1-2.5-3.1-1.4 0-2.5.4-2.5 1 0 .5-.7 1-1.5 1-1.9 0-1.9-2.7 0-6.4.8-1.5 1.5-3.7 1.5-4.7s.5-2.1 1-2.4c.6-.3 1 .1 1 .9 0 .9.4 1.6 1 1.6s.6-.9 0-2.5c-1-2.7.8-8.2 3.4-10.5.9-.7 1.6-1.8 1.6-2.5s1.6-2.3 3.5-3.6c3-2.1 6.2-6.1 3.5-4.4-1.7 1.1-1-.9 1.3-3.6 2.1-2.5 6.4-4.9 5.2-3-.3.5-.1 1.2.4 1.5s1.1-.1 1.5-.9c.3-.8-.2-1.8-1.1-2.3-1.3-.8-1.1-1.2 1.6-2.8 1.7-1 3.1-2.2 3.1-2.6s.6-.8 1.3-.8 2-.8 2.8-1.8c2.7-2.9 5.9-5.2 7.3-5.2 2.7 0 7.8-2.3 6.6-3-1.3-.8 11.2-5 15-5 1.4-.1 4.8-.9 7.5-1.9 2.8-1 6.1-1.7 7.5-1.5s6.4.5 11.1.8M250.7 182c-.1 2-.9 2.5-2 1.3-.4-.3-.2-1.2.4-2 1.5-1.8 1.8-1.7 1.6.7"/><path d="M196 61.4c0 .2.7.6 1.5 1 .8.3 1.5.1 1.5-.4 0-.6-.7-1-1.5-1s-1.5.2-1.5.4m13 .6c0 .5 1 1 2.3 1 1.8 0 1.9-.2.7-1-1.9-1.3-3-1.3-3 0m-37.5 2c-.4.6.7 1 2.4 1s3.1-.5 3.1-1c0-.6-1.1-1-2.4-1-1.4 0-2.8.4-3.1 1m-13.3 2.3c-2.1 2.8-2.1 3.4.1 3.2 3.6-.4 3.7-.4 3.7-1.9 0-1.9-2.6-2.8-3.8-1.3m6.3-.3c-.4.6.5 1 1.9 1s2.6-.5 2.6-1c0-.6-.9-1-1.9-1-1.1 0-2.3.4-2.6 1m33-.3c-3.6.9-4.6 3.8-1.6 4.6 2.7.7 3.4-.3 1.3-1.9-1.5-1.2-1.2-1.3 2.5-1.4 2.3 0 4.5-.5 4.8-1 .6-1-3.3-1.2-7-.3M181 67.2c0 .9-.6 1.9-1.2 2.1-.7.3-.3.6 1 .6 2.4.1 2.7-.6 1.2-2.9-.8-1.3-1-1.3-1 .2m35.6-.3c-.4.7-.5 1.5-.2 1.8.9.9 1.9-.4 1.4-1.8-.4-1.1-.6-1.1-1.2 0M209 68c0 .5.9 1 2 1s2-.5 2-1c0-.6-.9-1-2-1s-2 .4-2 1m-43.5 2c.3.5 1.5 1 2.6 1 1 0 1.9-.5 1.9-1 0-.6-1.2-1-2.6-1s-2.3.4-1.9 1m-23.2 2.7c-.3 1-.8 2.1-1 2.5-.2.5.5.8 1.6.8 1.4 0 2.1-.6 2.1-1.9 0-2.7-1.9-3.6-2.7-1.4m80.7 1.8c0 .9.6 1.2 1.5.9.8-.4 1.2-1 .9-1.5-.8-1.4-2.4-1-2.4.6m-77.4 5c-.8.8-2 1.5-2.6 1.5s-.9.4-.6.9c.4.5 1.9.3 3.6-.6 1.7-.8 2.8-1.9 2.5-2.4-.8-1.2-1.1-1.2-2.9.6m81.7.1c-1.7 1.3-1.7 1.3.3 1.4 1.1 0 2.5.5 3.1 1.1s1.5 1 2 .8c.4-.2-.2-1.4-1.4-2.6-1.9-1.8-2.4-1.9-4-.7m8.7-.1c0 .9.9 1.5 2.1 1.5 1.8 0 1.9-.2.9-1.5-.7-.8-1.6-1.5-2.1-1.5s-.9.7-.9 1.5m-103.7 4c-.3.9-.3 1.9.1 2.2.7.7 3.6-1.6 3.6-2.8 0-1.5-3-1-3.7.6M138 86c0 .5.5 1 1 1 .6 0 1-.5 1-1 0-.6-.4-1-1-1-.5 0-1 .4-1 1m105 1.1c0 .8 1 2.6 2.1 3.8 2.1 2.2 2.2 2.2 3.2.5.6-1.1 1.5-2.2 2.1-2.6s.7-1.1.2-1.5-1.1-.2-1.3.4c-.7 1.9-3.4 1.6-4.9-.5-1.1-1.4-1.3-1.5-1.4-.1m-107 2c0 .5.5.7 1 .4.6-.3 1-.8 1-1.1 0-.2-.4-.4-1-.4-.5 0-1 .5-1 1.1m113 5c0 .5.5.7 1 .4.6-.3 1-.8 1-1.1 0-.2-.4-.4-1-.4-.5 0-1 .5-1 1.1m4.2 2.1c.6 1.8 2.8 2.1 2.8.4 0-.9-.7-1.6-1.6-1.6s-1.4.5-1.2 1.2m-130.7 2c.4 1.3 1.3 3 2.1 3.8 1.2 1.2 1.4 1.1 1.4-.9 0-2.1-2-5.1-3.5-5.1-.3 0-.3 1 0 2.2m124.9.3c.3 3 2.5 4.2 3.4 1.7.2-.6-.3-1.2-1.1-1.2-.9 0-1.8-.8-2-1.8-.3-.9-.4-.4-.3 1.3m-132.2 1.4c-1 .6-.9 1.1.4 2.2.9.8 2 1.2 2.3.9s.8.8 1.1 2.5c.3 1.6 1 2.9 1.5 2.7 1.3-.4.7-4-1.2-6.9-1.7-2.5-2.1-2.7-4.1-1.4m145.4 12.8c-.3 1-.9 2.4-1.2 3-.3.7-.1 1.3.4 1.3s1.3-1.2 1.6-2.6c.8-3 .2-4.4-.8-1.7m7.1 9.7c-.4 1-.7 2.6-.7 3.7 0 1-.4 1.9-1 1.9-.5 0-1 .7-1 1.6 0 1 .6 1.4 1.5 1 1-.4 1.5.1 1.5 1.6s.3 1.9 1 1.2c1.3-1.3 1.5-7.2.3-10.3-.8-2.1-1.1-2.2-1.6-.7M108.3 141c.1 2.7.6 4 1.5 4s1.2-.6.8-1.6c-.3-.9-.6-2.7-.6-4s-.4-2.4-.9-2.4c-.6 0-.9 1.8-.8 4m161.9.1c.1 1.3.8 2.3 1.3 2.1 1.5-.3 1.2-3.5-.3-4-.9-.3-1.3.3-1 1.9M105.5 160c-.3.5-.1 1 .4 1 .6 0 1.1-.5 1.1-1 0-.6-.2-1-.4-1-.3 0-.8.4-1.1 1m4.5.4c0 .9.5 1.6 1 1.6.6 0 1-.4 1-.9 0-.6-.4-1.3-1-1.6-.5-.3-1 .1-1 .9m150.6 13.3c.9 5.1 1.4 5.4 1.4 1 0-2-.5-3.9-1.1-4.2-.7-.5-.8.5-.3 3.2m-151.6.4c0 1.1.5 1.7 1 1.4.6-.3 1-1.3 1-2.1s-.4-1.4-1-1.4c-.5 0-1 .9-1 2.1m148 11c0 1.1.5 1.7 1 1.4.6-.3 1-1.3 1-2.1s-.4-1.4-1-1.4c-.5 0-1 .9-1 2.1m-143 0c0 .5.5.7 1 .4.6-.3 1-.8 1-1.1 0-.2-.4-.4-1-.4-.5 0-1 .5-1 1.1m123.7 13c-1.9 1.1-1.4 2.9.9 2.9 1.5 0 4.4-2.3 4.4-3.4 0-1-3.4-.6-5.3.5m11.3-.1c0 .5.4 1 .9 1 .6 0 1.3-.5 1.6-1 .3-.6-.1-1-.9-1-.9 0-1.6.4-1.6 1m-14.4 7.9c-.3.5.1 1.2 1 1.5 2 .8 2.9.1 1.9-1.3-.8-1.3-2.2-1.4-2.9-.2m-4.6 4.7c-1.2 1.3-1.1 1.7.1 2.5 3.4 2.1 5.9.1 3-2.5-1.7-1.5-1.9-1.5-3.1 0m-6.5 1.4c-.3.5.1 1 .9 1 .9 0 1.6-.5 1.6-1 0-.6-.4-1-.9-1-.6 0-1.3.4-1.6 1m-17 4c-.4.6.7 1 2.4 1s3.1-.5 3.1-1c0-.6-1.1-1-2.4-1-1.4 0-2.8.4-3.1 1m-25.8.7c-1.4 1.3-.6 2.4 1.5 2.1 2.7-.4 3.6-2.8 1.1-2.8-1.1 0-2.3.3-2.6.7M195 218c.8.5 2.4 1 3.5 1s2.7-.5 3.5-1c1.1-.7.1-1-3.5-1s-4.6.3-3.5 1m22.1.6c0 1.1.3 1.4.6.6.3-.7.2-1.6-.1-1.9-.3-.4-.6.2-.5 1.3m-42.7 1.3c.3.5 1.4 1.1 2.5 1.4 1.4.3 1.8.1 1.4-.9-.3-.8-1.4-1.4-2.5-1.4-1 0-1.7.4-1.4.9m12.1 2.1c-.4.6 1.1 1 3.7 1 3.1 0 3.9-.3 2.8-1-2-1.3-5.7-1.3-6.5 0m17.4.1c-1 .6-.7.9 1.4.9 2.9 0 3.5-.5 1.4-1.3-.8-.3-2-.1-2.8.4m-8.5 3.4c.8.8 2 1.5 2.7 1.5.9 0 .8-.4-.1-1.5-.7-.8-1.9-1.5-2.7-1.5-1.2 0-1.2.2.1 1.5m-16.9.5c-.3.5.1 1 .9 1 .9 0 1.6-.5 1.6-1 0-.6-.4-1-.9-1-.6 0-1.3.4-1.6 1m11-145.7c4.5 3.2 53.6 31 54 30.5 1.1-1.1-8.6-12.8-14.5-17.6-10.4-8.4-21.8-13-34-13.9-6.8-.5-7.3-.4-5.5 1m15.6 1.7c1.1 0 1.9.6 1.9 1.4 0 1.7-5.3 3.2-5.8 1.7-.2-.6-1.1-1.1-2-1.1s-2.6-.8-3.7-1.7c-1.9-1.4-1.7-1.5 2.9-.9 2.7.3 5.7.6 6.7.6m7.3 3.6c.3.9.4 2 0 2.5-.3.5.5.9 1.7.9 1.8 0 1.9-.2.9-1.5-1-1.2-1-1.5 0-1.5 1.3 0 7.1 3.8 8.1 5.3.4.5 1.7 1.4 3 2.1 1.3.6 2.8 2.1 3.4 3.4.5 1.2 1.5 2.2 2 2.2.6 0 2.9 1.8 5 4s3.4 4 2.7 4c-2.1 0-9.2-5.2-9.2-6.7 0-1.1-.7-1.3-2.5-.9-1.7.4-3.1.1-4.3-1.1-1-1-2.7-2.3-3.8-2.9-1-.7-1.7-2-1.6-3 .3-1.5.1-1.6-1.2-.5-1.7 1.5-5.1.7-4.1-.9.3-.6-.4-1-1.7-1-2.9-.1-8.2-2.9-5.5-3 1 0 2.5-.7 3.3-1.5 2-1.9 3-1.9 3.8.1M148 95.5l-2.4 2.5.2 44.8c.1 24.6.5 45.4.8 46.4.2.9 2 2.3 3.9 3.2 4.2 2 5 1.8 21.9-8.1 7.2-4.2 23.2-13.4 35.6-20.5s23.5-14 24.8-15.4c4.6-5.2 1.9-11.1-7.4-15.9-2.2-1.1-6.7-3.7-10.2-5.8-3.4-2.1-13.6-7.9-22.5-13.1-8.9-5.1-20.6-11.8-26-14.9-11.2-6.5-15-7.2-18.7-3.2m11.2 1.5c1.7 1.7 4 3 5.4 3 2.2 0 2.3.3 1.4 2-.9 1.6-.8 1.9.6 1.3 1.3-.5 1.5-.2.9 1.5-.8 2.6 1.9 3.2 2.9.7.8-2.1 3-1.9 5.1.5 1 1.1 2.3 2 2.9 2s2.8 1.1 4.8 2.5 4.4 2.5 5.2 2.5c.9 0 1.6.4 1.6.9s1.2 1.4 2.8 2.1c4.1 1.7 9.8 5 8.7 5-.5 0 .5.9 2.3 2 1.7 1.1 3.2 2.5 3.2 3.1 0 .7.9.9 2.4.5s2.8 0 3.6.9c.7.8 1.9 1.5 2.6 1.5 1.5 0 .8 3-1 4.2-1.4 1 1.1 2.8 3.8 2.8 1.2 0 1.6-.5 1.3-1.4-.7-1.8 1.2-2.6 3.6-1.4 2.3 1.2 2.2 2.4-.4 3.1-1.6.4-1.9 1-1.4 2.9 1 3.2 1.3 3.4 3.7 1.9 1.7-1.1 2.2-1.1 2.9.1.6.9.2 1.5-1.4 1.9-2.1.5-2 .6.5 1.1 1.5.3 2.6.2 2.4-.1-.7-1.2 1.4-5.2 2.4-4.6 1.6 1 1.3 8.5-.4 8.5-.8 0-1.7-.6-1.9-1.3-.4-.9-.8-.8-1.6.3-.8 1.2-1.2 1.2-2.9-.3-1-.9-2.4-1.7-3-1.7-2.2 0-1.2 1.9 1.8 3.5 3.8 2 3.8 2.7-.2 4.3-5.7 2.3-9.3 4.4-10.9 6.5-1.7 2.1-3.9 1.6-3.9-.9 0-2-1.3-1.8-3.3.6-.9 1.1-1.2 2-.7 2 2.2 0 .8 3-1.7 3.6-1.5.4-4.8 2.2-7.3 4s-5.7 3.8-7 4.4c-2.4 1-4.7 2.4-8 4.5-2.3 1.4-5.1 1.7-6.6.4-.9-.7-2-.6-3.8.6-2.8 1.9-3.2 3-1.5 4 1.1.8-3.4 3.5-5.7 3.5-.7 0-2.8 1.3-4.6 3-3.7 3.4-3.8 3.4-7.1 1.9-2.7-1.2-5.3-8.5-4.3-12.2.3-1.3.5-13.8.5-27.8-.1-27.7 0-41.1.1-41.9 0-.3.4.1.9.9.6.9 1.1 1 1.5.2.4-.6.3-1.1-.2-1.1s-1.4-1.7-2-3.9c-1.2-3.8-.9-5.2 2.1-9.9 1.4-2.2 5.7-1.3 8.9 1.8m16.3 82.9c.6 1.1-3.3 2.6-4.2 1.7-.4-.3-.1-.6.6-.6s.9-.5.6-1c-.3-.6.1-1 .9-1s1.7.4 2.1.9"/><path d="M152.6 97.6c-.3.9-.2 2.3.4 3.2.7 1.4.9 1 1-1.6 0-3.5-.5-4.1-1.4-1.6m2.4 7.4c0 1.6 3.9 3.2 5.6 2.2 1.4-.8 1.1-1.1-1.6-2.1-4-1.3-4-1.3-4-.1m1.5 7.1c-1 1.5.3 2.5 1.6 1.2.7-.7.7-1.3.1-1.7-.6-.3-1.4-.1-1.7.5m5.5-.1c0 .5.6 1 1.4 1s1.8-.5 2.1-1c.3-.6-.3-1-1.4-1-1.2 0-2.1.4-2.1 1m21 3.5c0 .8 1.2 1.8 2.8 2.1 1.5.4 4.4 1.8 6.5 3.1 2 1.3 3.7 1.9 3.7 1.4 0-.9-11-8.1-12.4-8.1-.3 0-.6.7-.6 1.5m-14.9.4c-4 .5-5.8 1.3-7.3 3.1l-2 2.4-1.7-2.3c-1.6-2.1-1.9-2.1-2.4-.6-.4.9-.7 2.6-.7 3.7 0 1.2-.8 2.7-1.7 3.4-1.7 1.3-1.7 1.4 0 .8 1-.4 2.2-1.5 2.8-2.5.5-1.1 1.4-1.9 1.9-1.9 1.5 0 2.4 5.1 1 6-1.7 1-1.9 14.2-.2 14.7.9.3 1.2 3.6 1.2 11.8 0 11.1.1 11.4 2.6 13.4 2.6 2.1 11.4 3.1 11.4 1.3 0-1.1 9.3-6.7 10.8-6.4.7.2 2.6-1 4.2-2.7 1.7-1.6 4.3-3.2 6-3.6 1.6-.4 3.2-1.1 3.6-1.6.3-.5 2.4-2.1 4.6-3.5 4.2-2.7 7.3-8.2 6.3-11.4-.5-1.6-15.3-11-17.4-11-.8 0-3.6-4.3-3.3-5.3.1-.4-1.2-.7-2.8-.7-3.4 0-11-3.5-11-5 0-1.9 4.9-1 6 1 1.2 2.2 3.2 2.8 2.4.7-.6-1.6-5.8-4.7-7.6-4.6-.7.1-3.7.5-6.7.8m8.8 6.2c28.2 15.4 30.7 17.5 28.5 23.6-1.1 3-33.4 22.2-37.4 22.3-1.4 0-3.6-.7-4.8-1.6-2.2-1.5-2.2-1.9-2.2-23.4s0-21.9 2.2-23.4c3.4-2.4 5.4-2 13.7 2.5m19.1 4.4c-1 1.3-.9 1.5.9 1.5 1.1 0 2.1-.4 2.1-.9 0-1.8-1.8-2.1-3-.6m5 3.5c0 .5.7 1 1.5 1s1.5-.5 1.5-1c0-.6-.7-1-1.5-1s-1.5.4-1.5 1m8 1.5c0 .8.7 1.5 1.5 1.5s1.5-.7 1.5-1.5-.7-1.5-1.5-1.5-1.5.7-1.5 1.5m1.2 7.2c.2 1 1.3 1.9 2.6 2.1 2.4.4 2.9-.7 1-2.6-1.8-1.8-4-1.5-3.6.5m1.8 6.7c0 2.4 1.8 2.8 3 .6.9-1.7.8-2-1-2-1.1 0-2 .6-2 1.4m3.9 5.7c-1.1.6-1.1 1.1-.2 2 1.2 1.2 4.3.6 4.3-1 0-1.4-2.5-2-4.1-1m-13.6 3.3c-3 1.4-2.9 2.6.2 2.6 1.8 0 2.5-.5 2.5-2 0-1.1-.1-1.9-.2-1.9-.2.1-1.3.6-2.5 1.3m8.8.2c0 1.1.3 1.4.6.6.3-.7.2-1.6-.1-1.9-.3-.4-.6.2-.5 1.3m-62.1 5.5c0 .5.9.9 2 .9s2-.2 2-.4-.9-.6-2-.9-2-.1-2 .4m46 2.9c0 .5.5 1 1.1 1 .5 0 .7-.5.4-1-.3-.6-.8-1-1.1-1-.2 0-.4.4-.4 1m-40 2.6c0 .8.5 1.2 1 .9.6-.3 1-1 1-1.6 0-.5-.4-.9-1-.9-.5 0-1 .7-1 1.6"/><path d="M179.3 166.5c-.7.8-1.3 1.9-1.3 2.5 0 1.8 1.7 1.1 3.4-1.5 1.8-2.8.1-3.6-2.1-1m6.7 2c-1.3 1.4-2.9 2.5-3.7 2.5-.7 0-1.3.4-1.3 1 0 1.7 3 1.1 5.7-1 1.4-1.1 3.3-2 4.3-2 .9 0 1.7-.7 1.7-1.5 0-2.4-4.1-1.8-6.7 1m-30 5c0 .9.5 1.5 1.1 1.3s1.1-.8 1.1-1.3-.5-1.1-1.1-1.3-1.1.4-1.1 1.3m22 1c0 .8.5 1.5 1 1.5.6 0 1-.7 1-1.5s-.4-1.5-1-1.5c-.5 0-1 .7-1 1.5m-11.2.2c-1 .2-1.8.9-1.8 1.4 0 .6.7.6 1.8.1.9-.5 2.4-1.2 3.2-1.5 1.3-.5 1.3-.5 0-.5-.8 0-2.3.2-3.2.5m-4.6 3.6c-.9 1.1-1 1.7-.2 2.2 1.5.9 2.3.1 1.8-2.1-.3-1.5-.4-1.6-1.6-.1m-9.5 4.7c-.8 2.2-1.3 4-1 4s2.3-1.5 4.3-3.4c3.6-3.2 3.7-3.5 1.7-4-3.3-.9-3.3-.9-5 3.4m73.3 1.6c-30.9 18-37 21.6-37.6 22.6-.4.7 1.2.8 4.7.4 10.1-1.3 15.4-2.8 23.9-6.9 6.6-3.2 10.1-5.8 16-11.7 7-7.1 12.1-14 10.3-14-.4 0-8.2 4.3-17.3 9.6m13-4.9c0 .5-2.7 3.7-5.9 7.3-5.4 6-6 6.4-8.2 5.3-1.3-.6-3.1-1.4-3.9-1.6-1-.3-.3-1 2-2 1.9-.9 6-3.4 9-5.6 5.6-4 7-4.7 7-3.4m-15.1 13.9c.3.2 0 .9-.7 1.6-1 1-2.3 1.3-7.7 1.7-1.9.2-1.9.2-.1 1.6 1.8 1.3 1.7 1.4-.9 2.1-1.6.4-3.6.2-4.6-.5-1-.6-2.6-1.1-3.6-1.1-1.5 0-1.4-.2.3-1.5 1-.8 2.9-1.5 4.2-1.5s2-.4 1.7-1c-1.4-2.3 9.3-3.5 11.4-1.4m-18.9 7.2c2.4 1.1 2.4 3.5 0 2.9-1.2-.3-3.7.1-5.7.9-1.9.8-4 1.3-4.6 1-.7-.2-.4-.5.6-.5.9-.1 1.7-.5 1.7-1s1-1.1 2.3-1.3c1.2-.2 2.1-.9 2-1.6-.3-1.3 1.3-1.5 3.7-.4"/></g><g fill="#0040BF" stroke-width="0"><path d="M174.5 58.1c-2.7 1-6.1 1.8-7.5 1.9-3.8 0-16.3 4.2-15 5 1.2.7-3.9 3-6.6 3-1.4 0-4.6 2.3-7.3 5.2-.8 1-2.1 1.8-2.8 1.8s-1.3.4-1.3.8-1.4 1.6-3.1 2.6c-2.7 1.6-2.9 2-1.6 2.8.9.5 1.4 1.5 1.1 2.3-.4.8-1 1.2-1.5.9s-.7-1-.4-1.5c1.2-1.9-3.1.5-5.2 3-2.3 2.7-3 4.7-1.3 3.6 2.7-1.7-.5 2.3-3.5 4.4-1.9 1.3-3.5 2.9-3.5 3.6s-.7 1.8-1.6 2.5c-2.6 2.3-4.4 7.8-3.4 10.5.6 1.6.6 2.5 0 2.5s-1-.7-1-1.6c0-.8-.4-1.2-1-.9-.5.3-1 1.4-1 2.4s-.7 3.2-1.5 4.7c-1.9 3.7-1.9 6.4 0 6.4.8 0 1.5-.5 1.5-1 0-.6 1.1-1 2.5-1 2.1 0 2.5.5 2.5 3.1 0 2.7-.3 3.1-2.1 2.6-3.1-.8-4.8.2-4.4 2.5.3 1.2 0 2.8-.5 3.7-.8 1.4-1 1.3-1-.4l-.1-2-.9 2c-1.2 2.8-1.2 19.3 0 20 .6.3 1 3.3 1 6.5 0 3.3.6 7.4 1.4 9.2s2.4 5.4 3.5 8c1.2 2.6 2.1 5.2 2.1 5.6 0 .5.9 1.7 2 2.7s2 2.4 2 3.2c0 .7.3 1.3.8 1.3.4 0 .7-14.2.7-31.5s-.3-31.5-.7-31.5c-.8 0 .2-3.2 1.2-4 .7-.5 2.1-3.2 6.8-12.5 1.3-2.8 3.5-6.3 4.8-7.8 3.1-3.7 3-4.3-.6-7.4-1.7-1.3-2.7-2.9-2.4-3.5.4-.5 1.8.1 3.3 1.5 1.4 1.3 3.4 2.4 4.4 2.4 1.9 0 2.3-1.3.6-1.9-.6-.2.2-1 1.8-1.8 4.1-2.1 14.3-10.1 14.3-11.3 0-.5.7-.7 1.5-.3.8.3 2.1-.1 2.9-.9s1.9-1.5 2.5-1.5 1.1-.4 1.1-.8c0-1.6 5.1-3.2 10-3.2 2.6 0 5-.5 5.2-1 .3-1.1 26.3-1.5 34.8-.5 5.3.6 9 2.3 9 4.2 0 .7.5 1.3 1.2 1.3s3.7 1.7 6.8 3.9c6.2 4.3 9.5 5.7 10.5 4.1.8-1.3 2.5-1.3 2.5 0 0 .5-.7 1-1.5 1-2.1 0-.7 2.5 4.2 7.6 2.1 2.1 5.1 5.6 6.7 7.7 3.2 4.2 4.7 4.7 3.9 1.4l-.5-2.2 1.7 2.3c1.6 2.2 1.6 2.4-.1 3.7-1.8 1.3-1.8 1.4.3 3.7 1.2 1.3 2.6 4.2 3.1 6.3.7 3.2 1.3 4 2.9 3.8 1.7-.2 1.9.2 1.6 2.5-.4 2-.2 2.3.6 1.2.7-1.1 1-.8.9 1.5 0 3.5 2.5 8.8 3.7 7.7.4-.4.2.2-.5 1.4-1 1.6-1 2.9-.3 5.1.6 1.6.7 3.6.3 4.4s-1.3 4.4-2.1 8.1c-.7 3.8-1.6 6.8-2 6.8s-.6.8-.5 1.7c0 1-.5 1.7-1.2 1.5-.7-.1-2.1 1.9-3.2 4.5-1.1 2.7-2.4 5.6-3 6.5-1.4 2.5-1.2 5 .3 4.6.6-.3 1.5-1.8 1.8-3.4.5-2.3.7-2.6 1.3-1.2.8 1.7-2.6 7.8-4.3 7.8-.4 0-.7 1-.8 2.1-.2 2.2-3 5.9-4.4 5.9-.5 0-.6-.6-.3-1.4s.1-1.7-.5-2.1c-.6-.3-1.2.3-1.2 1.4-.2 3.4-.4 3.9-1.3 4.8-.5.5-.7-.2-.3-1.5.6-2.7.4-2.6-6.8 4.5-5.3 5.2-6.5 7.3-4 7.3.8 0 1.5.4 1.5 1 0 1.6-2.2 1.2-3.5-.7-1.1-1.5-1.7-1.4-6.1 1.5-2.7 1.7-6.1 4.3-7.6 5.7-1.6 1.5-3.3 2.2-4.2 1.9s-1.4-.9-1.1-1.3c.2-.4-1.1-.3-3 .3s-3.5 1.4-3.5 1.8c0 .5-2.8.8-6.3.8-3.6 0-6.8.5-7.5 1.2-1 1-1.7 1-3.2 0-2.9-1.8-7.9-1.4-13.5 1.1-4.9 2.2-7.2 5.7-3.6 5.7.9 0 .4.6-1.3 1.5-1.5.8-3.8 1.5-5 1.4-1.9-.1-1.8-.2.6-1.3 1.9-.8 2.5-1.5 1.8-2.6-.6-1-1.2-1.1-2.2-.3-.7.6-3.1 1.4-5.3 1.8l-4 .8 5.5 1.8c3 .9 8.6 2.1 12.3 2.5 4.1.4 6.3 1 5.6 1.5-2.3 1.4 19 .8 21.8-.6 2.1-1.1 2.2-1.4.7-1.7-1-.1 1.5-.4 5.5-.5 7.2-.2 15.1-2.9 17.6-5.9.6-.6 2.5-1.4 4.3-1.8 1.8-.3 5-1.8 7-3.3s3.9-2.8 4.1-3c.2-.1-.2-.9-.8-1.7-1.5-1.7-.1-2.8 1.9-1.5 1.9 1.1 3.3 1.2 2.6 0-.3-.4.7-1.4 2.2-2 2.5-1.2 2.5-1.4.9-2.5-2.1-1.6-2.2-3.6-.2-3.6.8 0 1.5.4 1.5 1 0 3.5 6.1-1.4 8-6.5 1.1-2.9 1.1-2.9-.9-1-1.2 1-2.1 1.3-2.1.7 0-.7.5-1.2 1-1.2 1.4 0 1.2-2.7-.2-3.3-1-.4-1-.7 0-1.8s1.5-.9 2.8.9 1.9 2.1 3 1.1c.8-.6 1.4-1.7 1.4-2.3s.9-2.2 2-3.6 2-3.5 2-4.8c0-1.2.5-2.2 1-2.2.6 0 1-1.4 1-3.1 0-3.8 1.6-6.9 3.5-6.9.9 0 1.5-1 1.5-2.4 0-1.3.3-3.3.6-4.3.4-1.3.3-1.5-.4-.4-1.2 1.6-2.1.3-3.2-4.5-1-4.3.4-4.4 2-.2 1.1 3 1.2 3.1 2 1.2 2.9-7.4 1.1-36.3-2.5-39-.8-.6-1.5-2-1.5-3.1 0-2.3-2.2-7.3-3.2-7.3-.5 0-.8-1-.8-2.3 0-1.2-.8-3.1-1.6-4.2-1.6-2-1.6-2-3.1.2-2 3-3.3 2.9-3.3-.3 0-2.1.4-2.4 2-1.9 1.5.5 2 .2 2-1.2 0-2.7-1.3-4.2-3.5-4-1.5.2-2-.4-2-2.8 0-3.1-4.1-8.5-6.4-8.5-.6 0-1.4-.7-1.7-1.5-.4-.8-1.2-1.5-2-1.5s-1.3-.3-1.3-.8c.4-2.3-.4-2.8-3.3-2.4s-3.1.3-2-1.1c1.1-1.3.9-1.8-1.5-3.4-3.3-2.4-8.9-4.4-9.7-3.6-.3.4-.6.1-.6-.5 0-.7-.7-1.2-1.5-1.2s-1.5-.6-1.5-1.4c0-1.7-1.2-2.2-12.9-5.2-5.2-1.3-13.3-2.7-18-3s-9.7-.6-11.1-.8-4.7.5-7.5 1.5M199 62c0 .5-.7.7-1.5.4-.8-.4-1.5-.8-1.5-1s.7-.4 1.5-.4 1.5.4 1.5 1m13 0c1.2.8 1.1 1-.7 1-1.3 0-2.3-.5-2.3-1 0-1.3 1.1-1.3 3 0m-35 2c0 .5-1.4 1-3.1 1s-2.8-.4-2.4-1c.3-.6 1.7-1 3.1-1 1.3 0 2.4.4 2.4 1m-15 3.6c0 1.5-.1 1.5-3.7 1.9-2.2.2-2.2-.4-.1-3.2 1.2-1.5 3.8-.6 3.8 1.3m7-1.6c0 .5-1.2 1-2.6 1s-2.3-.4-1.9-1c.3-.6 1.5-1 2.6-1 1 0 1.9.4 1.9 1m35.5 0c-.3.5-2.5 1-4.8 1-3.7.1-4 .2-2.5 1.4 2.1 1.6 1.4 2.6-1.3 1.9-2-.6-2.3-1.2-1.1-2.9 1.3-2 10.9-3.4 9.7-1.4M183 69.2c0 .5-1 .8-2.2.7-1.3 0-1.7-.3-1-.6.6-.2 1.2-1.2 1.2-2.1 0-1.5.2-1.5 1-.2.5.8 1 1.8 1 2.2m34.6-.5c-1 1-1.9-.5-1-1.8.6-1.1.8-1.1 1.2 0 .2.7.1 1.5-.2 1.8M213 68c0 .5-.9 1-2 1s-2-.5-2-1c0-.6.9-1 2-1s2 .4 2 1m-43 2c0 .5-.9 1-1.9 1-1.1 0-2.3-.5-2.6-1-.4-.6.5-1 1.9-1s2.6.4 2.6 1m-25 4.1c0 1.3-.7 1.9-2.1 1.9-1.1 0-1.8-.3-1.6-.8.2-.4.7-1.5 1-2.5.8-2.2 2.7-1.3 2.7 1.4m80.4-.2c.3.5-.1 1.1-.9 1.5-.9.3-1.5 0-1.5-.9 0-1.6 1.6-2 2.4-.6m-76.9 5c.3.5-.8 1.6-2.5 2.4-1.7.9-3.2 1.1-3.6.6-.3-.5 0-.9.6-.9s1.8-.7 2.6-1.5c1.8-1.8 2.1-1.8 2.9-.6m84.2 4c-.5.2-1.4-.2-2-.8s-2-1.1-3.1-1.1c-2-.1-2-.1-.3-1.4 1.6-1.2 2.1-1.1 4 .7 1.2 1.2 1.8 2.4 1.4 2.6m6.3-3.4c1 1.3.9 1.5-.9 1.5-1.2 0-2.1-.6-2.1-1.5 0-.8.4-1.5.9-1.5s1.4.7 2.1 1.5m-103 3.4c0 1.2-2.9 3.5-3.6 2.8-1.1-1 .5-3.7 2.1-3.7.8 0 1.5.4 1.5.9m4 3.1c0 .5-.4 1-1 1-.5 0-1-.5-1-1 0-.6.5-1 1-1 .6 0 1 .4 1 1m107.3 3c.8 0 1.7-.6 2-1.3.2-.6.8-.8 1.3-.4s.4 1.1-.2 1.5-1.5 1.5-2.1 2.6c-1 1.7-1.1 1.7-3.2-.5-1.1-1.2-2.1-3-2.1-3.8.1-1.4.3-1.3 1.4.1.7 1 2 1.8 2.9 1.8M138 88.4c0 .3-.4.8-1 1.1-.5.3-1 .1-1-.4 0-.6.5-1.1 1-1.1.6 0 1 .2 1 .4m113 5c0 .3-.4.8-1 1.1-.5.3-1 .1-1-.4 0-.6.5-1.1 1-1.1.6 0 1 .2 1 .4m5 3.2c0 1.7-2.2 1.4-2.8-.4-.2-.7.3-1.2 1.2-1.2s1.6.7 1.6 1.6m-131.4.8c.8.8 1.4 2.5 1.4 3.7 0 2-.2 2.1-1.4.9-1.6-1.7-3.1-6-2.1-6 .4 0 1.3.6 2.1 1.4M249.7 99c.8 0 1.3.6 1.1 1.2-.9 2.5-3.1 1.3-3.4-1.7-.1-1.7 0-2.2.3-1.3.2 1 1.1 1.8 2 1.8m-130.4 2.3c1.9 2.9 2.5 6.5 1.2 6.9-.5.2-1.2-1.1-1.5-2.7-.3-1.7-.8-2.8-1.1-2.5s-1.4-.1-2.3-.9c-1.3-1.1-1.4-1.6-.4-2.2 2-1.3 2.4-1.1 4.1 1.4m142.1 13.1c-.3 1.4-1.1 2.6-1.6 2.6s-.7-.6-.4-1.3c.3-.6.9-2 1.2-3 1-2.7 1.6-1.3.8 1.7m8.7 14.5c-.1 3.8-2.1 7-2.1 3.3 0-1.5-.5-2-1.5-1.6-.9.4-1.5 0-1.5-1 0-.9.5-1.6 1-1.6.6 0 1-.9 1-1.9 0-1.1.3-2.7.7-3.7.5-1.5.8-1.4 1.6.7.5 1.3.9 3.9.8 5.8M110 139.4c0 1.3.3 3.1.6 4 .4 1 .1 1.6-.8 1.6s-1.4-1.3-1.5-4c-.1-2.2.2-4 .8-4 .5 0 .9 1.1.9 2.4m162.5 1.9c0 2.6-2 2.5-2.3-.2-.3-1.6.1-2.2 1-1.9.7.3 1.3 1.2 1.3 2.1M107 160c0 .5-.5 1-1.1 1-.5 0-.7-.5-.4-1 .3-.6.8-1 1.1-1 .2 0 .4.4.4 1m5 1.1c0 .5-.4.9-1 .9-.5 0-1-.7-1-1.6 0-.8.5-1.2 1-.9.6.3 1 1 1 1.6m150 13.6c0 4.4-.5 4.1-1.4-1-.5-2.7-.4-3.7.3-3.2.6.3 1.1 2.2 1.1 4.2m-151-1.3c0 .8-.4 1.8-1 2.1-.5.3-1-.3-1-1.4 0-1.2.5-2.1 1-2.1.6 0 1 .6 1 1.4m148 11c0 .8-.4 1.8-1 2.1-.5.3-1-.3-1-1.4 0-1.2.5-2.1 1-2.1.6 0 1 .6 1 1.4m-143 0c0 .3-.4.8-1 1.1-.5.3-1 .1-1-.4 0-.6.5-1.1 1-1.1.6 0 1 .2 1 .4m127 13.2c0 1.1-2.9 3.4-4.4 3.4-2.3 0-2.8-1.8-.9-2.9s5.3-1.5 5.3-.5m8.5.4c-.3.5-1 1-1.6 1-.5 0-.9-.5-.9-1 0-.6.7-1 1.6-1 .8 0 1.2.4.9 1m-14 8.1c1 1.4.1 2.1-1.9 1.3-.9-.3-1.3-1-1-1.5.7-1.2 2.1-1.1 2.9.2m-3.1 7c-.7 1.1-2.5 1.1-4.3 0-1.2-.8-1.3-1.2-.1-2.5 1.2-1.5 1.4-1.5 3.1 0 1 .9 1.6 2.1 1.3 2.5M226 212c0 .5-.7 1-1.6 1-.8 0-1.2-.5-.9-1 .3-.6 1-1 1.6-1 .5 0 .9.4.9 1m-14 4c0 .5-1.4 1-3.1 1s-2.8-.4-2.4-1c.3-.6 1.7-1 3.1-1 1.3 0 2.4.4 2.4 1m-27.2 1.2c-.5 1.5-4.8 2.4-4.8 1s1.2-2.2 3.3-2.2c1 0 1.7.5 1.5 1.2m17.2.8c-.8.5-2.4 1-3.5 1s-2.7-.5-3.5-1c-1.1-.7-.1-1 3.5-1s4.6.3 3.5 1m15.7 1.2c-.3.8-.6.5-.6-.6-.1-1.1.2-1.7.5-1.3.3.3.4 1.2.1 1.9m-39.4 1.2c.4 1 0 1.2-1.4.9-2.7-.7-3.4-2.3-1.1-2.3 1.1 0 2.2.6 2.5 1.4M193 222c1.1.7.3 1-2.8 1-2.6 0-4.1-.4-3.7-1 .8-1.3 4.5-1.3 6.5 0m15 .6c0 .2-1.2.4-2.7.4-2.1 0-2.4-.3-1.4-.9 1.3-.8 4.1-.5 4.1.5m-10 2.9c.9 1.1 1 1.5.1 1.5-.7 0-1.9-.7-2.7-1.5-1.3-1.3-1.3-1.5-.1-1.5.8 0 2 .7 2.7 1.5m-17 .5c0 .5-.7 1-1.6 1-.8 0-1.2-.5-.9-1 .3-.6 1-1 1.6-1 .5 0 .9.4.9 1"/><path d="M195.5 82.3c1.1.9 2.8 1.7 3.7 1.7s1.8.5 2 1.1c.5 1.5 5.8 0 5.8-1.7 0-.8-.8-1.4-1.9-1.4-1 0-4-.3-6.7-.6-4.6-.6-4.8-.5-2.9.9m13.1 3.2c-.8.8-2.3 1.5-3.3 1.5-2.7.1 2.6 2.9 5.5 3 1.3 0 2 .4 1.7 1-1 1.6 2.4 2.4 4.1.9 1.3-1.1 1.5-1 1.2.5-.1 1 .6 2.3 1.6 3 1.1.6 2.8 1.9 3.8 2.9 1.2 1.2 2.6 1.5 4.3 1.1 1.8-.4 2.5-.2 2.5.9 0 1.5 7.1 6.7 9.2 6.7.7 0-.6-1.8-2.7-4s-4.4-4-5-4c-.5 0-1.5-1-2-2.2-.6-1.3-2.1-2.8-3.4-3.4-1.3-.7-2.6-1.6-3-2.1-1-1.5-6.8-5.3-8.1-5.3-1 0-1 .3 0 1.5 1 1.3.9 1.5-.9 1.5-1.2 0-2-.4-1.7-.9.7-1.1-.3-4.1-1.4-4.1-.5 0-1.5.7-2.4 1.5m-58.3 9.7c-3 4.7-3.3 6.1-2.1 9.9.6 2.2 1.5 3.9 2 3.9s.6.5.2 1.1c-.4.8-.9.7-1.5-.2-.5-.8-.9-1.2-.9-.9-.1.8-.2 14.2-.1 41.9 0 14-.2 26.5-.5 27.8-1 3.7 1.6 11 4.3 12.2 3.3 1.5 3.4 1.5 7.1-1.9 1.8-1.7 3.9-3 4.6-3 2.3 0 6.8-2.7 5.7-3.5-1.7-1-1.3-2.1 1.5-4 1.8-1.2 2.9-1.3 3.8-.6 1.5 1.3 4.3 1 6.6-.4 3.3-2.1 5.6-3.5 8-4.5 1.3-.6 4.5-2.6 7-4.4s5.8-3.6 7.3-4c2.5-.6 3.9-3.6 1.7-3.6-.5 0-.2-.9.7-2 2-2.4 3.3-2.6 3.3-.6 0 2.5 2.2 3 3.9.9 1.6-2.1 5.2-4.2 10.9-6.5 4-1.6 4-2.3.2-4.3-3-1.6-4-3.5-1.8-3.5.6 0 2 .8 3 1.7 1.7 1.5 2.1 1.5 2.9.3.8-1.1 1.2-1.2 1.6-.3.2.7 1.1 1.3 1.9 1.3 1.7 0 2-7.5.4-8.5-1-.6-3.1 3.4-2.4 4.6.2.3-.9.4-2.4.1-2.5-.5-2.6-.6-.5-1.1 1.6-.4 2-1 1.4-1.9-.7-1.2-1.2-1.2-2.9-.1-2.4 1.5-2.7 1.3-3.7-1.9-.5-1.9-.2-2.5 1.4-2.9 2.6-.7 2.7-1.9.4-3.1-2.4-1.2-4.3-.4-3.6 1.4.3.9-.1 1.4-1.3 1.4-2.7 0-5.2-1.8-3.8-2.8 1.8-1.2 2.5-4.2 1-4.2-.7 0-1.9-.7-2.6-1.5-.8-.9-2.1-1.3-3.6-.9s-2.4.2-2.4-.5c0-.6-1.5-2-3.2-3.1-1.8-1.1-2.8-2-2.3-2 1.1 0-4.6-3.3-8.7-5-1.6-.7-2.8-1.6-2.8-2.1s-.7-.9-1.6-.9c-.8 0-3.2-1.1-5.2-2.5s-4.2-2.5-4.8-2.5-1.9-.9-2.9-2c-2.1-2.4-4.3-2.6-5.1-.5-1 2.5-3.7 1.9-2.9-.7.6-1.7.4-2-.9-1.5-1.4.6-1.5.3-.6-1.3.9-1.7.8-2-1.4-2-1.4 0-3.7-1.3-5.4-3-3.2-3.1-7.5-4-8.9-1.8m3.7 4c-.1 2.6-.3 3-1 1.6-.6-.9-.7-2.3-.4-3.2.9-2.5 1.4-1.9 1.4 1.6m5 5.9c2.7 1 3 1.3 1.6 2.1-1.7 1-5.6-.6-5.6-2.2 0-1.2 0-1.2 4 .1m-.9 8.2c-1.3 1.3-2.6.3-1.6-1.2.3-.6 1.1-.8 1.7-.5.6.4.6 1-.1 1.7m7.4-1.3c-.3.5-1.3 1-2.1 1s-1.4-.5-1.4-1c0-.6.9-1 2.1-1 1.1 0 1.7.4 1.4 1m24.6 5.6c3.3 1.9 5.9 4 5.9 4.5s-1.7-.1-3.7-1.4c-2.1-1.3-5-2.7-6.5-3.1-1.6-.3-2.8-1.3-2.8-2.1 0-2.1.5-2 7.1 2.1m-11-.9c2.9 1.7 4.6 4.3 2.9 4.3-.5 0-1.4-.9-2-2-1.1-2-6-2.9-6-1 0 1.5 7.6 5 11 5 1.6 0 2.9.3 2.8.7-.3 1 2.5 5.3 3.3 5.3 2.1 0 16.9 9.4 17.4 11 1 3.2-2.1 8.7-6.3 11.4-2.2 1.4-4.3 3-4.6 3.5-.4.5-2 1.2-3.6 1.6-1.7.4-4.3 2-6 3.6-1.6 1.7-3.5 2.9-4.2 2.7-1.5-.3-10.8 5.3-10.8 6.4 0 1.8-8.8.8-11.4-1.3-2.5-2-2.6-2.3-2.6-13.4 0-8.2-.3-11.5-1.2-11.8-1.7-.5-1.5-13.7.2-14.7 1.4-.9.5-6-1-6-.5 0-1.4.8-1.9 1.9-.6 1-1.8 2.1-2.8 2.5-1.7.6-1.7.5 0-.8.9-.7 1.7-2.2 1.7-3.4 0-1.1.3-2.8.7-3.7.5-1.5.8-1.5 2.4.6l1.7 2.3 2-2.4c1.9-2.3 3.6-2.8 14-3.9.8 0 2.7.7 4.3 1.6m19.9 10.4c0 .5-1 .9-2.1.9-1.8 0-1.9-.2-.9-1.5 1.2-1.5 3-1.2 3 .6m5 2.9c0 .5-.7 1-1.5 1s-1.5-.5-1.5-1c0-.6.7-1 1.5-1s1.5.4 1.5 1m8 1.5c0 .8-.7 1.5-1.5 1.5s-1.5-.7-1.5-1.5.7-1.5 1.5-1.5 1.5.7 1.5 1.5m1.8 6.7c1.9 1.9 1.4 3-1 2.6-1.3-.2-2.4-1.1-2.6-2.1-.4-2 1.8-2.3 3.6-.5m1.2 7.8c-1.2 2.2-3 1.8-3-.6 0-.8.9-1.4 2-1.4 1.8 0 1.9.3 1 2m5 6.1c0 1.6-3.1 2.2-4.3 1-.9-.9-.9-1.4.2-2 1.6-1 4.1-.4 4.1 1m-15 2.9c0 1.5-.7 2-2.5 2-1.4 0-2.5-.3-2.5-.8 0-.6.9-1.2 4.8-3.1.1 0 .2.8.2 1.9m6.7.2c-.3.8-.6.5-.6-.6-.1-1.1.2-1.7.5-1.3.3.3.4 1.2.1 1.9m-58.7 5.4c0 .2-.9.4-2 .4s-2-.4-2-.9.9-.7 2-.4 2 .7 2 .9m43.5 2.4c.3.5.1 1-.4 1-.6 0-1.1-.5-1.1-1 0-.6.2-1 .4-1 .3 0 .8.4 1.1 1m-39.5 1.9c0 .6-.4 1.3-1 1.6-.5.3-1-.1-1-.9 0-.9.5-1.6 1-1.6.6 0 1 .4 1 .9m24.4 2.6c-1.7 2.6-3.4 3.3-3.4 1.5 0-1.5 2.3-3.9 3.8-4 .9 0 .8.7-.4 2.5m11.3 0c0 .8-.8 1.5-1.7 1.5-1 0-2.9.9-4.3 2-2.7 2.1-5.7 2.7-5.7 1 0-.6.6-1 1.3-1 .8 0 2.4-1.1 3.7-2.5 2.6-2.8 6.7-3.4 6.7-1m-34.5 6c0 .5-.5 1.1-1.1 1.3s-1.1-.4-1.1-1.3.5-1.5 1.1-1.3 1.1.8 1.1 1.3m21.8 1c0 .8-.4 1.5-1 1.5-.5 0-1-.7-1-1.5s.5-1.5 1-1.5c.6 0 1 .7 1 1.5m-10 .2c-.8.3-2.3 1-3.2 1.5-1.1.5-1.8.5-1.8-.1 0-1 2.3-1.8 5-1.9 1.3 0 1.3 0 0 .5m-6.3 6c-.3.3-1.1.2-1.7-.2-.8-.5-.7-1.1.2-2.2 1.2-1.5 1.3-1.4 1.6.1.2 1 .1 2-.1 2.3m-6-1.1c2 .5 1.9.8-1.7 4-2 1.9-4 3.4-4.3 3.4s.2-1.8 1-4c1.7-4.3 1.7-4.3 5-3.4"/><path d="M172.5 180c.3.5.1 1-.6 1s-1 .3-.6.6c.3.3 1.5.3 2.6-.1 2.3-.7 1.9-2.5-.5-2.5-.8 0-1.2.4-.9 1m59.5 3.1c-3 2.2-7.1 4.7-9 5.6-2.3 1-3 1.7-2 2 .8.2 2.6 1 3.9 1.6 2.2 1.1 2.8.7 8.2-5.3 8.3-9.2 8-10.5-1.1-3.9m17.1-1.8c-.6.8-.8 1.7-.4 2 1.1 1.2 1.9.7 2-1.3.2-2.4-.1-2.5-1.6-.7M214.2 193c-1.3.6-2 1.4-1.7 2s-.4 1-1.7 1-3.2.7-4.2 1.5c-1.7 1.3-1.8 1.5-.3 1.5 1 0 2.6.5 3.6 1.1 1 .7 3 .9 4.6.5 2.6-.7 2.7-.8.9-2.1-1.8-1.4-1.8-1.4.1-1.6 5.4-.4 6.7-.7 7.7-1.7.7-.7 1-1.4.7-1.6-1-1.1-7.6-1.4-9.7-.6m-12.9 8.2c.1.7-.8 1.4-2 1.6-1.3.2-2.3.8-2.3 1.3s-.8.9-1.7 1c-1 0-1.3.3-.6.5.6.3 2.7-.2 4.6-1 2-.8 4.5-1.2 5.7-.9 2.4.6 2.4-1.8 0-2.9s-4-.9-3.7.4"/></g><path fill="#404040" fill-opacity=".4" d="m120.9 77.7-2.4 2.8 2.8-2.4c2.5-2.3 3.2-3.1 2.4-3.1-.2 0-1.4 1.2-2.8 2.7m133.1-.2c1.3 1.4 2.6 2.5 2.8 2.5.3 0-.5-1.1-1.8-2.5s-2.6-2.5-2.8-2.5c-.3 0 .5 1.1 1.8 2.5M94.2 143c0 1.9.2 2.7.5 1.7.2-.9.2-2.5 0-3.5-.3-.9-.5-.1-.5 1.8m187 0c0 1.9.2 2.7.5 1.7.2-.9.2-2.5 0-3.5-.3-.9-.5-.1-.5 1.8"/><path fill="#404040" fill-opacity=".3" d="M281.2 138c0 1.4.2 1.9.5 1.2.2-.6.2-1.8 0-2.5-.3-.6-.5-.1-.5 1.3m-187.1.6c0 1.1.3 1.4.6.6.3-.7.2-1.6-.1-1.9-.3-.4-.6.2-.5 1.3m0 9c0 1.1.3 1.4.6.6.3-.7.2-1.6-.1-1.9-.3-.4-.6.2-.5 1.3m187.1.4c0 1.4.2 1.9.5 1.2.2-.6.2-1.8 0-2.5-.3-.6-.5-.1-.5 1.3"/><path fill="#404080" d="M137.9 101.7c-1.3 1.6-1.2 1.7.4.4.9-.7 1.7-1.5 1.7-1.7 0-.8-.8-.3-2.1 1.3m102.2 39.9c0 1.1.3 1.4.6.6.3-.7.2-1.6-.1-1.9-.3-.4-.6.2-.5 1.3m-40.5.7c.3 1 .9 1.5 1.2 1.2s0-1.1-.7-1.8c-1-.9-1.1-.8-.5.6m40.5 3.3c0 1.1.3 1.4.6.6.3-.7.2-1.6-.1-1.9-.3-.4-.6.2-.5 1.3"/><path fill="#408080" d="M247.5 122c1 1.1 2 2 2.3 2s-.3-.9-1.3-2-2-2-2.3-2 .3.9 1.3 2m-81.1 21.5c0 10.4.2 14.6.3 9.2.2-5.4.2-13.9 0-19-.1-5.1-.3-.7-.3 9.8m-41.3-14.9c0 1.1.3 1.4.6.6.3-.7.2-1.6-.1-1.9-.3-.4-.6.2-.5 1.3m-.8 8.9c0 2.7.2 3.8.4 2.2.2-1.5.2-3.7 0-5-.2-1.2-.4 0-.4 2.8m132 6c0 2.2.2 3 .4 1.7.2-1.2.2-3 0-4-.3-.9-.5.1-.4 2.3m-8.9 20.7-2.9 3.3 3.3-2.9c3-2.8 3.7-3.6 2.9-3.6-.2 0-1.6 1.5-3.3 3.2m-99.6 50.5c.7.3 1.6.2 1.9-.1.4-.3-.2-.6-1.3-.5-1.1 0-1.4.3-.6.6m11 0c.7.3 1.6.2 1.9-.1.4-.3-.2-.6-1.3-.5-1.1 0-1.4.3-.6.6"/><g fill="#4080BF" stroke-width="0"><path d="M172.3 81.1c-.5.5-2.5 1.1-4.3 1.4-1.8.2-3.6.8-3.9 1.2s-1.5 1-2.6 1.1c-2.5.5-2.7.6-2 2.3.6 1.3 22.2 13.9 23.8 13.9.4 0 1.7.8 2.8 1.8 1.1 1.1 3.9 2.8 6.2 3.8s4.4 2.1 4.7 2.5c.3.3 4.3 2.8 9 5.4 4.7 2.7 10.3 5.9 12.5 7.3s4.5 2.5 5.2 2.5 1.3.4 1.3.9c0 .4.7.8 1.5.8s1.5.5 1.5 1.1c0 .5.5.7 1 .4.6-.3 1-.1 1 .6s.3 1 .6.6c.3-.3 1.3.1 2.2.9 1 .8 2.2 1.5 2.7 1.5.6.1 2 2 3.3 4.1 4.3 7.7 2 16.4-5.3 20.4-1.9 1-3.5 2.2-3.5 2.5 0 .4-1.1 1-2.5 1.3-1.4.4-2.3 1.1-2 1.6s-1.2 1.4-3.4 2-4.5 1.8-5 2.8c-.6.9-1.1 1.4-1.1.9 0-.9-6.2 2.2-7.2 3.6-.3.6-1.3 1.2-2.1 1.3-1.3.2-9.7 5.1-10.7 6.3-.3.3-1 .7-1.5.8-2.4.4-9.4 5-8.8 5.8.5.4 0 .5-.9.2-1-.4-1.8-.2-1.8.3 0 .6-.4 1-1 1-1.3 0-11.4 6.2-11.8 7.2-.2.5-.8.6-1.3.2-.5-.3-.9 0-.9.6s-.4.9-.9.6-1.4.1-2.1.9c-1.9 2.3-10.5 4.7-14.4 3.9-2-.3-3.6-1.1-3.6-1.7s-.3-.7-.7-.4c-.3.4-1.3-.2-2-1.3-.8-1.1-1.9-1.8-2.4-1.5s-.6-.2-.2-1.1c.4-1.1.3-1.5-.5-1s-1.1-11.6-1.2-44.1c0-24.6-.4-45.1-.8-45.5-1-1-8.2 9.9-8.2 12.3 0 1.1-.4 1.9-.9 1.9-1.9 0-4.1 8.6-5.2 20-1.6 17.9-.8 54.5 1.3 59.2 2.1 4.6 7.8 11.9 8.8 11.3.5-.3 1.1.2 1.4 1.1 1.1 3 9.6 5.8 17.6 5.8 8.2 0 15.7-2.7 21.4-7.7 1.7-1.4 3.3-2.4 3.8-2.1.4.3.8 0 .8-.6s.4-.9.8-.6c.5.3 3.3-1.1 6.3-3.1 3-1.9 6.4-3.9 7.7-4.4 1.2-.5 2.2-1.4 2.2-2 0-.7.3-.9.7-.6.7.7 7.2-3 8.8-5 .6-.7 2.1-1.5 3.5-1.8s2.6-.9 2.8-1.5.8-.8 1.3-.4c.5.3.9 0 .9-.5 0-.6.3-1 .8-.9 1.2.4 18.1-9.6 17.6-10.4-.3-.5.4-.8 1.6-.8 1.1 0 2.8-.9 3.7-2 1-1.1 2.4-2 3.2-2 2.8 0 10.8-9.5 12.6-15 3.6-10.7.6-23.1-7.4-31.1-3.3-3.3-22.1-14.9-24.1-14.9-.5 0-1.5-.6-2.2-1.3-2.3-2.3-12.5-7.7-13.1-7-.4.3-.7.1-.7-.4 0-1.1-12.3-8.5-13.6-8.3-.4.1-1-.2-1.3-.8-1-1.4-9.3-5.9-12.4-6.6-1.5-.4-2.6-1-2.3-1.4.6-1-4.1-1.1-5.1-.1m-42.6 115.1c-.3.8-.6.5-.6-.6-.1-1.1.2-1.7.5-1.3.3.3.4 1.2.1 1.9"/><path d="M167 142.5c0 15.2.2 17.5 1.6 17.5.8 0 1.2.5.9 1-.3.6 1.1 0 3.2-1.2s4-2.6 4.1-3c.2-.5.8-.6 1.3-.2.5.3.9-.2.9-1 0-.9.8-1.6 1.9-1.6 3.1 0 18.1-9.3 18.1-11.2 0-1.5-3.4-3.5-5.3-3-1.2.3-4.9-1.9-4.3-2.5.8-.8-6.6-5.3-7.6-4.7-.5.3-.8 0-.8-.5 0-.6-.3-1-.7-.9-1.6.4-5.3-1.4-4.8-2.2.6-1-4.6-4-7-4-1.3 0-1.5 2.4-1.5 17.5"/></g><path fill="#8080BF" d="M177 81.5c1.4.8 3 1.4 3.5 1.4.6 0-.1-.6-1.5-1.4s-2.9-1.4-3.5-1.4c-.5 0 .1.6 1.5 1.4M158 87c0 .5.5 1 1.1 1 .5 0 .7-.5.4-1-.3-.6-.8-1-1.1-1-.2 0-.4.4-.4 1m17.1 42.4c.2.2 1.5.9 2.9 1.5 2.4 1.1 2.4 1.1.6-.3-1.6-1.3-4.9-2.4-3.5-1.2m15.3 9.1c1.1.8 2.5 1.5 3 1.5.6 0 .2-.7-.8-1.5-1.1-.8-2.5-1.5-3-1.5-.6 0-.2.7.8 1.5M179 155c0 .5.7.7 1.5.4.8-.4 1.5-.8 1.5-1s-.7-.4-1.5-.4-1.5.4-1.5 1m-12 6c0 .5.4 1 .9 1 .6 0 1.3-.5 1.6-1 .3-.6-.1-1-.9-1-.9 0-1.6.4-1.6 1m56 1c-.8.5-1 1-.5 1 .6 0 1.7-.5 2.5-1s1.1-1 .5-1c-.5 0-1.7.5-2.5 1m16.5 7c-.3.6.1.7.9.4 1.8-.7 2.1-1.4.7-1.4-.6 0-1.3.4-1.6 1m-32.1 18.6c-1.8 1.4-1.8 1.5.4.4 1.2-.6 2.2-1.3 2.2-1.5 0-.8-.5-.6-2.6 1.1m-78.3 8c0 1.1.3 1.4.6.6.3-.7.2-1.6-.1-1.9-.3-.4-.6.2-.5 1.3m23.2 4.1c.9.2 2.3.2 3 0 .6-.3-.1-.5-1.8-.5-1.6 0-2.2.2-1.2.5"/></svg>