<?xml version="1.0" standalone="no"?>
<!DOCTYPE svg PUBLIC "-//W3C//DTD SVG 20010904//EN"
 "http://www.w3.org/TR/2001/REC-SVG-20010904/DTD/svg10.dtd">
<svg version="1.0" xmlns="http://www.w3.org/2000/svg"
 width="310.000000pt" height="227.000000pt" viewBox="0 0 310.000000 227.000000"
 preserveAspectRatio="xMidYMid meet">

<g transform="translate(0.000000,227.000000) scale(0.100000,-0.100000)"
fill="#000000" stroke="none">
<path d="M1445 1994 c-158 -26 -345 -106 -456 -196 -338 -273 -449 -731 -269
-1115 119 -255 317 -425 595 -509 133 -41 367 -41 500 0 277 84 476 255 595
509 179 382 68 845 -267 1113 -83 67 -240 146 -348 174 -79 21 -282 35 -350
24z m213 -408 c108 -62 258 -148 332 -191 74 -42 150 -91 168 -108 83 -79 114
-218 73 -327 -27 -72 -82 -125 -196 -191 -240 -138 -361 -208 -480 -277 -229
-134 -237 -137 -335 -137 -76 0 -91 3 -139 30 -69 38 -135 124 -150 195 -14
63 -14 406 -1 560 9 106 13 122 54 205 25 50 58 106 74 125 l30 35 1 -447 c0
-494 0 -489 64 -528 64 -39 105 -27 302 90 44 26 145 84 225 130 418 240 410
234 410 321 0 73 -23 95 -207 201 -92 53 -251 144 -353 203 -102 59 -207 118
-234 132 -44 23 -48 26 -31 36 34 19 149 57 173 57 13 0 112 -51 220 -114z
m-250 -346 c148 -82 277 -159 280 -168 3 -9 -88 -66 -279 -175 -26 -14 -49
-23 -53 -20 -11 11 -7 383 4 383 6 0 27 -9 48 -20z"/>
</g>
</svg>
